<mxfile host="app.diagrams.net" modified="2023-11-05T18:59:56.710Z" agent="Mozilla/5.0 (Windows NT 10.0; Win64; x64) AppleWebKit/537.36 (KHTML, like Gecko) Chrome/119.0.0.0 Safari/537.36" etag="DoPXAFPRIHYVxaft3FyU" version="22.0.8" type="device">
  <diagram name="Side-1" id="LDuNGLDWNnC0u-Jjmibd">
    <mxGraphModel dx="1049" dy="555" grid="1" gridSize="10" guides="1" tooltips="1" connect="1" arrows="1" fold="1" page="1" pageScale="1" pageWidth="827" pageHeight="1169" math="0" shadow="0">
      <root>
        <mxCell id="0" />
        <mxCell id="1" parent="0" />
        <mxCell id="XjVuDQVEAfMSHLMUfgnC-7" style="edgeStyle=orthogonalEdgeStyle;rounded=0;orthogonalLoop=1;jettySize=auto;html=1;entryX=0;entryY=0.5;entryDx=0;entryDy=0;" edge="1" parent="1" target="XjVuDQVEAfMSHLMUfgnC-2">
          <mxGeometry relative="1" as="geometry">
            <mxPoint x="170" y="90" as="sourcePoint" />
            <mxPoint x="260" y="90" as="targetPoint" />
          </mxGeometry>
        </mxCell>
        <mxCell id="XjVuDQVEAfMSHLMUfgnC-1" value="Splash" style="rounded=0;whiteSpace=wrap;html=1;" vertex="1" parent="1">
          <mxGeometry x="60" y="70" width="120" height="60" as="geometry" />
        </mxCell>
        <mxCell id="XjVuDQVEAfMSHLMUfgnC-14" style="edgeStyle=orthogonalEdgeStyle;rounded=0;orthogonalLoop=1;jettySize=auto;html=1;startArrow=ERone;startFill=0;" edge="1" parent="1" source="XjVuDQVEAfMSHLMUfgnC-2" target="XjVuDQVEAfMSHLMUfgnC-13">
          <mxGeometry relative="1" as="geometry" />
        </mxCell>
        <mxCell id="XjVuDQVEAfMSHLMUfgnC-17" style="edgeStyle=orthogonalEdgeStyle;rounded=0;orthogonalLoop=1;jettySize=auto;html=1;entryX=0.003;entryY=0.314;entryDx=0;entryDy=0;startArrow=ERone;startFill=0;entryPerimeter=0;" edge="1" parent="1" source="XjVuDQVEAfMSHLMUfgnC-2" target="XjVuDQVEAfMSHLMUfgnC-6">
          <mxGeometry relative="1" as="geometry">
            <Array as="points">
              <mxPoint x="240" y="189" />
            </Array>
          </mxGeometry>
        </mxCell>
        <mxCell id="XjVuDQVEAfMSHLMUfgnC-2" value="1)" style="rhombus;whiteSpace=wrap;html=1;" vertex="1" parent="1">
          <mxGeometry x="220" y="80" width="40" height="40" as="geometry" />
        </mxCell>
        <mxCell id="XjVuDQVEAfMSHLMUfgnC-4" style="edgeStyle=orthogonalEdgeStyle;rounded=0;orthogonalLoop=1;jettySize=auto;html=1;entryX=0.5;entryY=0;entryDx=0;entryDy=0;" edge="1" parent="1" source="XjVuDQVEAfMSHLMUfgnC-3" target="XjVuDQVEAfMSHLMUfgnC-2">
          <mxGeometry relative="1" as="geometry">
            <mxPoint x="240" y="70" as="targetPoint" />
            <Array as="points">
              <mxPoint x="240" y="40" />
            </Array>
          </mxGeometry>
        </mxCell>
        <mxCell id="XjVuDQVEAfMSHLMUfgnC-3" value="A" style="ellipse;whiteSpace=wrap;html=1;" vertex="1" parent="1">
          <mxGeometry x="100" y="20" width="40" height="40" as="geometry" />
        </mxCell>
        <mxCell id="XjVuDQVEAfMSHLMUfgnC-8" style="edgeStyle=orthogonalEdgeStyle;rounded=0;orthogonalLoop=1;jettySize=auto;html=1;" edge="1" parent="1" source="XjVuDQVEAfMSHLMUfgnC-6" target="XjVuDQVEAfMSHLMUfgnC-10">
          <mxGeometry relative="1" as="geometry">
            <mxPoint x="570" y="200" as="targetPoint" />
            <Array as="points">
              <mxPoint x="580" y="200" />
            </Array>
          </mxGeometry>
        </mxCell>
        <mxCell id="XjVuDQVEAfMSHLMUfgnC-38" style="edgeStyle=orthogonalEdgeStyle;rounded=0;orthogonalLoop=1;jettySize=auto;html=1;" edge="1" parent="1" source="XjVuDQVEAfMSHLMUfgnC-6">
          <mxGeometry relative="1" as="geometry">
            <mxPoint x="180" y="200" as="targetPoint" />
          </mxGeometry>
        </mxCell>
        <mxCell id="XjVuDQVEAfMSHLMUfgnC-6" value="Home" style="rounded=0;whiteSpace=wrap;html=1;" vertex="1" parent="1">
          <mxGeometry x="310" y="170" width="120" height="60" as="geometry" />
        </mxCell>
        <mxCell id="XjVuDQVEAfMSHLMUfgnC-11" style="edgeStyle=orthogonalEdgeStyle;rounded=0;orthogonalLoop=1;jettySize=auto;html=1;" edge="1" parent="1" source="XjVuDQVEAfMSHLMUfgnC-6" target="XjVuDQVEAfMSHLMUfgnC-12">
          <mxGeometry relative="1" as="geometry">
            <mxPoint x="375" y="330" as="targetPoint" />
            <mxPoint x="349.9999999999998" y="234" as="sourcePoint" />
            <Array as="points">
              <mxPoint x="340" y="280" />
              <mxPoint x="340" y="280" />
            </Array>
          </mxGeometry>
        </mxCell>
        <mxCell id="XjVuDQVEAfMSHLMUfgnC-22" value="" style="edgeStyle=orthogonalEdgeStyle;rounded=0;orthogonalLoop=1;jettySize=auto;html=1;entryX=0.5;entryY=0;entryDx=0;entryDy=0;exitX=0;exitY=0.75;exitDx=0;exitDy=0;" edge="1" parent="1" source="XjVuDQVEAfMSHLMUfgnC-6" target="XjVuDQVEAfMSHLMUfgnC-23">
          <mxGeometry relative="1" as="geometry">
            <mxPoint x="210" y="204" as="targetPoint" />
            <mxPoint x="315" y="219" as="sourcePoint" />
            <Array as="points">
              <mxPoint x="210" y="215" />
            </Array>
          </mxGeometry>
        </mxCell>
        <mxCell id="XjVuDQVEAfMSHLMUfgnC-37" style="edgeStyle=orthogonalEdgeStyle;rounded=0;orthogonalLoop=1;jettySize=auto;html=1;entryX=0.75;entryY=0;entryDx=0;entryDy=0;" edge="1" parent="1" source="XjVuDQVEAfMSHLMUfgnC-10" target="XjVuDQVEAfMSHLMUfgnC-12">
          <mxGeometry relative="1" as="geometry">
            <Array as="points">
              <mxPoint x="540" y="250" />
              <mxPoint x="400" y="250" />
            </Array>
          </mxGeometry>
        </mxCell>
        <mxCell id="XjVuDQVEAfMSHLMUfgnC-10" value="Create Group" style="rounded=0;whiteSpace=wrap;html=1;" vertex="1" parent="1">
          <mxGeometry x="480" y="170" width="120" height="60" as="geometry" />
        </mxCell>
        <mxCell id="XjVuDQVEAfMSHLMUfgnC-31" style="edgeStyle=orthogonalEdgeStyle;rounded=0;orthogonalLoop=1;jettySize=auto;html=1;" edge="1" parent="1" source="XjVuDQVEAfMSHLMUfgnC-12" target="XjVuDQVEAfMSHLMUfgnC-30">
          <mxGeometry relative="1" as="geometry" />
        </mxCell>
        <mxCell id="XjVuDQVEAfMSHLMUfgnC-41" style="edgeStyle=orthogonalEdgeStyle;rounded=0;orthogonalLoop=1;jettySize=auto;html=1;" edge="1" parent="1" source="XjVuDQVEAfMSHLMUfgnC-12" target="XjVuDQVEAfMSHLMUfgnC-40">
          <mxGeometry relative="1" as="geometry">
            <Array as="points">
              <mxPoint x="460" y="330" />
              <mxPoint x="460" y="370" />
            </Array>
          </mxGeometry>
        </mxCell>
        <mxCell id="XjVuDQVEAfMSHLMUfgnC-43" style="edgeStyle=orthogonalEdgeStyle;rounded=0;orthogonalLoop=1;jettySize=auto;html=1;entryX=0;entryY=0.5;entryDx=0;entryDy=0;" edge="1" parent="1" source="XjVuDQVEAfMSHLMUfgnC-12" target="XjVuDQVEAfMSHLMUfgnC-42">
          <mxGeometry relative="1" as="geometry">
            <Array as="points">
              <mxPoint x="460" y="320" />
              <mxPoint x="460" y="298" />
              <mxPoint x="480" y="298" />
            </Array>
          </mxGeometry>
        </mxCell>
        <mxCell id="XjVuDQVEAfMSHLMUfgnC-12" value="Group" style="rounded=0;whiteSpace=wrap;html=1;" vertex="1" parent="1">
          <mxGeometry x="310" y="290" width="120" height="60" as="geometry" />
        </mxCell>
        <mxCell id="XjVuDQVEAfMSHLMUfgnC-16" style="edgeStyle=orthogonalEdgeStyle;rounded=0;orthogonalLoop=1;jettySize=auto;html=1;entryX=0.286;entryY=-0.031;entryDx=0;entryDy=0;entryPerimeter=0;" edge="1" parent="1" source="XjVuDQVEAfMSHLMUfgnC-13" target="XjVuDQVEAfMSHLMUfgnC-6">
          <mxGeometry relative="1" as="geometry">
            <mxPoint x="345" y="174.00000000000006" as="targetPoint" />
            <Array as="points">
              <mxPoint x="345" y="130" />
              <mxPoint x="344" y="130" />
            </Array>
          </mxGeometry>
        </mxCell>
        <mxCell id="XjVuDQVEAfMSHLMUfgnC-20" style="edgeStyle=orthogonalEdgeStyle;rounded=0;orthogonalLoop=1;jettySize=auto;html=1;" edge="1" parent="1" source="XjVuDQVEAfMSHLMUfgnC-13" target="XjVuDQVEAfMSHLMUfgnC-19">
          <mxGeometry relative="1" as="geometry" />
        </mxCell>
        <mxCell id="XjVuDQVEAfMSHLMUfgnC-13" value="Login" style="rounded=0;whiteSpace=wrap;html=1;" vertex="1" parent="1">
          <mxGeometry x="290" y="70" width="120" height="60" as="geometry" />
        </mxCell>
        <mxCell id="XjVuDQVEAfMSHLMUfgnC-18" value="1) If the user is logged in, go directly to &quot;Groups&quot;" style="text;html=1;strokeColor=none;fillColor=none;align=center;verticalAlign=middle;whiteSpace=wrap;rounded=0;" vertex="1" parent="1">
          <mxGeometry x="200" y="460" width="170" height="30" as="geometry" />
        </mxCell>
        <mxCell id="XjVuDQVEAfMSHLMUfgnC-21" style="edgeStyle=orthogonalEdgeStyle;rounded=0;orthogonalLoop=1;jettySize=auto;html=1;entryX=0.75;entryY=0;entryDx=0;entryDy=0;startArrow=ERone;startFill=0;" edge="1" parent="1" source="XjVuDQVEAfMSHLMUfgnC-19" target="XjVuDQVEAfMSHLMUfgnC-6">
          <mxGeometry relative="1" as="geometry">
            <mxPoint x="405" y="174.00000000000006" as="targetPoint" />
            <Array as="points">
              <mxPoint x="530" y="150" />
              <mxPoint x="400" y="150" />
            </Array>
          </mxGeometry>
        </mxCell>
        <mxCell id="XjVuDQVEAfMSHLMUfgnC-19" value="Registration" style="rounded=0;whiteSpace=wrap;html=1;" vertex="1" parent="1">
          <mxGeometry x="470" y="70" width="120" height="60" as="geometry" />
        </mxCell>
        <mxCell id="XjVuDQVEAfMSHLMUfgnC-35" style="edgeStyle=orthogonalEdgeStyle;rounded=0;orthogonalLoop=1;jettySize=auto;html=1;" edge="1" parent="1" source="XjVuDQVEAfMSHLMUfgnC-23" target="XjVuDQVEAfMSHLMUfgnC-34">
          <mxGeometry relative="1" as="geometry" />
        </mxCell>
        <mxCell id="XjVuDQVEAfMSHLMUfgnC-23" value="Profile" style="rounded=0;whiteSpace=wrap;html=1;" vertex="1" parent="1">
          <mxGeometry x="150" y="290" width="120" height="60" as="geometry" />
        </mxCell>
        <mxCell id="XjVuDQVEAfMSHLMUfgnC-25" value="Invite" style="rounded=0;whiteSpace=wrap;html=1;" vertex="1" parent="1">
          <mxGeometry x="620" y="267.5" width="120" height="60" as="geometry" />
        </mxCell>
        <mxCell id="XjVuDQVEAfMSHLMUfgnC-27" value="Invite" style="rounded=0;whiteSpace=wrap;html=1;fillColor=none;" vertex="1" parent="1">
          <mxGeometry x="630" y="277.5" width="100" height="40" as="geometry" />
        </mxCell>
        <mxCell id="XjVuDQVEAfMSHLMUfgnC-28" value="" style="rounded=0;whiteSpace=wrap;html=1;" vertex="1" parent="1">
          <mxGeometry y="307.5" width="120" height="60" as="geometry" />
        </mxCell>
        <mxCell id="XjVuDQVEAfMSHLMUfgnC-29" value="PopUp" style="rounded=0;whiteSpace=wrap;html=1;fillColor=none;" vertex="1" parent="1">
          <mxGeometry x="10" y="317.5" width="100" height="40" as="geometry" />
        </mxCell>
        <mxCell id="XjVuDQVEAfMSHLMUfgnC-36" style="edgeStyle=orthogonalEdgeStyle;rounded=0;orthogonalLoop=1;jettySize=auto;html=1;" edge="1" parent="1" source="XjVuDQVEAfMSHLMUfgnC-30" target="XjVuDQVEAfMSHLMUfgnC-33">
          <mxGeometry relative="1" as="geometry">
            <Array as="points">
              <mxPoint x="450" y="410" />
              <mxPoint x="450" y="440" />
            </Array>
          </mxGeometry>
        </mxCell>
        <mxCell id="XjVuDQVEAfMSHLMUfgnC-30" value="Add Expense" style="rounded=0;whiteSpace=wrap;html=1;" vertex="1" parent="1">
          <mxGeometry x="310" y="380" width="120" height="60" as="geometry" />
        </mxCell>
        <mxCell id="XjVuDQVEAfMSHLMUfgnC-32" value="Legend" style="text;html=1;strokeColor=none;fillColor=none;align=center;verticalAlign=middle;whiteSpace=wrap;rounded=0;" vertex="1" parent="1">
          <mxGeometry y="267.5" width="120" height="30" as="geometry" />
        </mxCell>
        <mxCell id="XjVuDQVEAfMSHLMUfgnC-33" value="Attachment" style="rounded=0;whiteSpace=wrap;html=1;" vertex="1" parent="1">
          <mxGeometry x="480" y="415" width="120" height="60" as="geometry" />
        </mxCell>
        <mxCell id="XjVuDQVEAfMSHLMUfgnC-34" value="Invoices" style="rounded=0;whiteSpace=wrap;html=1;" vertex="1" parent="1">
          <mxGeometry x="150" y="380" width="120" height="60" as="geometry" />
        </mxCell>
        <mxCell id="XjVuDQVEAfMSHLMUfgnC-39" value="Notification" style="rounded=0;whiteSpace=wrap;html=1;" vertex="1" parent="1">
          <mxGeometry x="60" y="170" width="120" height="60" as="geometry" />
        </mxCell>
        <mxCell id="XjVuDQVEAfMSHLMUfgnC-44" style="edgeStyle=orthogonalEdgeStyle;rounded=0;orthogonalLoop=1;jettySize=auto;html=1;entryX=0;entryY=0.5;entryDx=0;entryDy=0;exitX=1;exitY=0.5;exitDx=0;exitDy=0;" edge="1" parent="1" source="XjVuDQVEAfMSHLMUfgnC-42" target="XjVuDQVEAfMSHLMUfgnC-25">
          <mxGeometry relative="1" as="geometry" />
        </mxCell>
        <mxCell id="XjVuDQVEAfMSHLMUfgnC-40" value="Member" style="rounded=0;whiteSpace=wrap;html=1;" vertex="1" parent="1">
          <mxGeometry x="480" y="340" width="120" height="60" as="geometry" />
        </mxCell>
        <mxCell id="XjVuDQVEAfMSHLMUfgnC-42" value="Edit" style="rounded=0;whiteSpace=wrap;html=1;gradientColor=none;dashed=1;gradientDirection=north;" vertex="1" parent="1">
          <mxGeometry x="480" y="267.5" width="120" height="60" as="geometry" />
        </mxCell>
        <mxCell id="XjVuDQVEAfMSHLMUfgnC-46" value="Admin Only" style="rounded=0;whiteSpace=wrap;html=1;dashed=1;" vertex="1" parent="1">
          <mxGeometry y="380" width="120" height="60" as="geometry" />
        </mxCell>
      </root>
    </mxGraphModel>
  </diagram>
</mxfile>
